<?xml version="1.0" encoding="UTF-8"?>
<svg xmlns="http://www.w3.org/2000/svg" width="25" height="24" viewBox="0 0 25 24" fill="none">
  <path d="M12.067 1.5C14.5924 1.5 16.5555 4.63814 16.8248 8.61678L21.206 8.61867C21.482 8.61878 21.7058 8.84261 21.7058 9.11867V21.7031C21.7058 21.9793 21.4818 22.2031 21.2055 22.2031L3.3331 22.1956C3.05704 22.1954 2.83331 21.9716 2.83331 21.6956V9.11111C2.83331 8.83489 3.0573 8.61111 3.33352 8.61111L7.3095 8.61273C7.57981 4.63602 9.54248 1.5 12.067 1.5ZM3.83309 9.61078V21.1953L20.7056 21.2028V9.61828L3.83309 9.61078ZM12.067 2.5C10.2143 2.5 8.56766 5.13491 8.31203 8.613L15.8222 8.61601C15.5673 5.13643 13.9203 2.5 12.067 2.5Z" fill="black"></path>
</svg>
